<?xml version="1.0" encoding="UTF-8" standalone="no"?>
<!-- Created with Inkscape (http://www.inkscape.org/) -->

<svg
   xmlns:dc="http://purl.org/dc/elements/1.1/"
   xmlns:cc="http://creativecommons.org/ns#"
   xmlns:rdf="http://www.w3.org/1999/02/22-rdf-syntax-ns#"
   xmlns:svg="http://www.w3.org/2000/svg"
   xmlns="http://www.w3.org/2000/svg"
   xmlns:sodipodi="http://sodipodi.sourceforge.net/DTD/sodipodi-0.dtd"
   xmlns:inkscape="http://www.inkscape.org/namespaces/inkscape"
   width="210mm"
   height="297mm"
   viewBox="0 0 210 297"
   version="1.1"
   id="svg8"
   inkscape:version="0.92.1 r15371"
   sodipodi:docname="logo.svg"
   inkscape:export-filename="/mnt/sdc1/proyectos/quack/public/logo192.png"
   inkscape:export-xdpi="48.682144"
   inkscape:export-ydpi="48.682144">
  <defs
     id="defs2" />
  <sodipodi:namedview
     id="base"
     pagecolor="#ffffff"
     bordercolor="#666666"
     borderopacity="1.0"
     inkscape:pageopacity="0.0"
     inkscape:pageshadow="2"
     inkscape:zoom="0.98994949"
     inkscape:cx="407.37222"
     inkscape:cy="441.23995"
     inkscape:document-units="mm"
     inkscape:current-layer="layer1"
     showgrid="false"
     inkscape:window-width="1963"
     inkscape:window-height="1133"
     inkscape:window-x="1158"
     inkscape:window-y="407"
     inkscape:window-maximized="0" />
  <metadata
     id="metadata5">
    <rdf:RDF>
      <cc:Work
         rdf:about="">
        <dc:format>image/svg+xml</dc:format>
        <dc:type
           rdf:resource="http://purl.org/dc/dcmitype/StillImage" />
        <dc:title></dc:title>
      </cc:Work>
    </rdf:RDF>
  </metadata>
  <g
     inkscape:label="Capa 1"
     inkscape:groupmode="layer"
     id="layer1">
    <g
       id="g4518"
       transform="translate(-7.2162772,8.5526249)">
      <path
         inkscape:connector-curvature="0"
         id="path4485"
         d="m 38.219542,281.49837 c 0,0 -2.939965,-6.68174 -10.156243,-4.54358 -7.216277,2.13816 -17.372517,-2.93996 -17.105249,-8.55263 0.267269,-5.61266 0.534538,-15.7689 10.95805,-18.97613 10.423511,-3.20724 1.870887,-12.82894 4.009043,-17.10525 2.138156,-4.27631 5.879931,-5.61266 8.018087,-5.07812 2.138156,0.53454 -13.363477,-12.2944 -10.423512,-15.7689 2.939965,-3.47451 13.363477,17.63978 13.898015,12.02713 0.53454,-5.61267 -12.027128,-17.10526 -7.750815,-20.31249 4.276312,-3.20723 14.165283,23.78699 14.967092,18.70887 0.80181,-5.07812 -6.681737,-15.76891 -4.009043,-17.10525 2.672696,-1.33635 7.216277,16.03617 8.552624,17.10525 1.33635,1.06907 6.68174,3.4745 9.888974,2.40542 3.207234,-1.06908 6.681737,8.55263 8.819894,17.63979 2.138158,9.08717 3.207238,1.87089 8.018088,6.41447 4.81085,4.54358 14.96709,6.68174 4.54358,24.05426 -10.42351,17.37252 -17.63979,2.40542 -21.381562,4.00904 -3.741774,1.60362 -3.741774,8.28536 -3.741774,8.28536"
         style="fill:#ffeeaa;fill-rule:evenodd;stroke:#000000;stroke-width:0.26458332px;stroke-linecap:butt;stroke-linejoin:miter;stroke-opacity:1" />
      <path
         sodipodi:nodetypes="cssssscccc"
         inkscape:connector-curvature="0"
         id="path4487"
         d="m 77.508167,273.21302 c 6.949,1.06907 14.43255,-0.26727 14.43255,-0.26727 14.151883,-3.2658 26.994213,-4.00904 13.363473,-6.94901 -13.630743,-2.93996 -18.976133,4.27631 -20.579753,0.26727 -1.60362,-4.00904 27.528753,-4.27631 16.303433,-9.88898 -11.225313,-5.61266 -18.708853,2.93997 -21.916093,2.93997 -3.20723,0 -0.53453,-6.949 -5.07812,-5.87993 -4.54358,1.06908 -6.147199,11.49259 -4.81085,13.89802 1.33635,2.40542 3.4745,6.68173 5.87993,6.94901 2.40543,0.26727 2.40543,-1.06908 2.40543,-1.06908 z"
         style="fill:#ff6600;fill-rule:evenodd;stroke:#000000;stroke-width:0.26499999;stroke-linecap:butt;stroke-linejoin:miter;stroke-miterlimit:4;stroke-dasharray:none;stroke-opacity:1" />
      <ellipse
         ry="7.2162771"
         rx="7.4835467"
         cy="244.88243"
         cx="36.883198"
         id="path4489"
         style="opacity:1;fill:#ffffff;fill-opacity:1;stroke:#000000;stroke-width:0.26499999;stroke-linecap:round;stroke-linejoin:round;stroke-miterlimit:4;stroke-dasharray:none;stroke-dashoffset:0;stroke-opacity:1" />
      <ellipse
         style="opacity:1;fill:#ffffff;fill-opacity:1;stroke:#000000;stroke-width:0.26499999;stroke-linecap:round;stroke-linejoin:round;stroke-miterlimit:4;stroke-dasharray:none;stroke-dashoffset:0;stroke-opacity:1"
         id="ellipse4500"
         cx="56.92841"
         cy="241.40793"
         rx="7.4835467"
         ry="7.2162771" />
      <circle
         r="1.4699824"
         cy="248.2233"
         cx="38.887714"
         id="path4502"
         style="opacity:1;fill:#000000;fill-opacity:1;stroke:#000000;stroke-width:0.26499999;stroke-linecap:round;stroke-linejoin:round;stroke-miterlimit:4;stroke-dasharray:none;stroke-dashoffset:0;stroke-opacity:1" />
      <circle
         style="opacity:1;fill:#000000;fill-opacity:1;stroke:#000000;stroke-width:0.26499999;stroke-linecap:round;stroke-linejoin:round;stroke-miterlimit:4;stroke-dasharray:none;stroke-dashoffset:0;stroke-opacity:1"
         id="circle4504"
         cx="58.131126"
         cy="240.73975"
         r="1.4699824" />
      <text
         id="text4508"
         y="217.88821"
         x="60.402916"
         style="font-style:normal;font-variant:normal;font-weight:normal;font-stretch:normal;font-size:3.52777767px;line-height:125%;font-family:sans-serif;-inkscape-font-specification:sans-serif;text-align:start;letter-spacing:0px;word-spacing:0px;text-anchor:start;fill:#000000;fill-opacity:1;stroke:none;stroke-width:0.26458332px;stroke-linecap:butt;stroke-linejoin:miter;stroke-opacity:1"
         xml:space="preserve"><tspan
           style="font-size:11.28888893px;stroke-width:0.26458332px"
           y="217.88821"
           x="60.402916"
           id="tspan4506"
           sodipodi:role="line">Quack!</tspan></text>
    </g>
  </g>
</svg>
